<svg width="20" height="20" viewBox="0 0 20 20" fill="none" xmlns="http://www.w3.org/2000/svg">
<path fill-rule="evenodd" clip-rule="evenodd" d="M7.74336 1.24279C7.84129 1.13872 7.95964 1.05576 8.0911 0.999038C8.22255 0.94232 8.3643 0.913055 8.50758 0.913055C8.65087 0.913055 8.79262 0.94232 8.92407 0.999038C9.05553 1.05576 9.17388 1.13872 9.2718 1.24279L15.9142 8.29472C16.5424 8.95929 16.0671 10.0478 15.15 10.0478H12.1717V11.0895C12.1717 11.3657 12.0614 11.6307 11.865 11.826C11.6687 12.0213 11.4024 12.1311 11.1248 12.1311H5.89039C5.61274 12.1311 5.34646 12.0213 5.15014 11.826C4.95381 11.6307 4.84351 11.3657 4.84351 11.0895V10.0478H1.8641C0.94913 10.0478 0.473848 8.95929 1.09988 8.29368L7.74336 1.24279ZM15.1511 9.00616L8.50758 1.95528L1.8641 9.00616H4.84351C5.12116 9.00616 5.38744 9.11591 5.58377 9.31125C5.7801 9.5066 5.89039 9.77155 5.89039 10.0478V11.0895H11.1248V10.0478C11.1248 9.77155 11.2351 9.5066 11.4314 9.31125C11.6277 9.11591 11.894 9.00616 12.1717 9.00616H15.1511ZM4.84351 14.2144C4.84351 13.9381 4.95381 13.6732 5.15014 13.4778C5.34646 13.2825 5.61274 13.1727 5.89039 13.1727H11.1248C11.4024 13.1727 11.6687 13.2825 11.865 13.4778C12.0614 13.6732 12.1717 13.9381 12.1717 14.2144V15.256C12.1717 15.5323 12.0614 15.7972 11.865 15.9926C11.6687 16.1879 11.4024 16.2977 11.1248 16.2977H5.89039C5.61274 16.2977 5.34646 16.1879 5.15014 15.9926C4.95381 15.7972 4.84351 15.5323 4.84351 15.256V14.2144ZM11.1248 14.2144H5.89039V15.256H11.1248V14.2144Z" fill="white"/>
</svg>
