<svg width="28" height="28" viewBox="0 0 28 28" fill="none" xmlns="http://www.w3.org/2000/svg">
<g clip-path="url(#clip0_1311_476)">
<path d="M21.1353 16.5254L18.7012 16.653L18.361 10.1619L20.7951 10.0343C23.0362 9.91686 24.7569 8.00581 24.6394 5.76476C24.522 3.52371 22.6109 1.80299 20.3699 1.92044C18.1288 2.03789 16.4081 3.94894 16.5256 6.18999L16.6531 8.62415L10.1621 8.96433L10.0345 6.53017C9.91704 4.28912 8.00599 2.5684 5.76494 2.68585C3.52389 2.8033 1.80317 4.71435 1.92062 6.9554C2.03807 9.19645 3.94912 10.9172 6.19017 10.7997L8.62433 10.6721L8.96451 17.1632L6.53035 17.2908C4.2893 17.4083 2.56859 19.3193 2.68604 21.5604C2.80348 23.8014 4.71453 25.5221 6.95558 25.4047C9.19663 25.2872 10.9173 23.3762 10.7999 21.1351L10.6723 18.701L17.1634 18.3608L17.291 20.7949C17.4084 23.036 19.3195 24.7567 21.5605 24.6393C23.8016 24.5218 25.5223 22.6108 25.4049 20.3697C25.2874 18.1287 23.3764 16.4079 21.1353 16.5254ZM18.1484 6.10494C18.0779 4.76129 19.1113 3.61363 20.4549 3.54321C21.7986 3.47279 22.9463 4.50615 23.0167 5.8498C23.0871 7.19346 22.0537 8.34111 20.7101 8.41153L18.2759 8.5391L18.1484 6.10494ZM9.17713 21.2202C9.24755 22.5638 8.21419 23.7115 6.87054 23.7819C5.52688 23.8523 4.37923 22.819 4.30881 21.4753C4.23839 20.1317 5.27174 18.984 6.6154 18.9136L9.04956 18.786L9.17713 21.2202ZM8.53928 9.04938L6.10512 9.17695C4.76147 9.24736 3.61381 8.21401 3.5434 6.87035C3.47298 5.5267 4.50633 4.37904 5.84999 4.30863C7.19364 4.23821 8.3413 5.27156 8.41171 6.61522L8.53928 9.04938ZM17.0784 16.738L10.5873 17.0782L10.2471 10.5871L16.7382 10.2469L17.0784 16.738ZM21.4755 23.0165C20.1318 23.0869 18.9842 22.0536 18.9138 20.7099L18.7862 18.2757L21.2204 18.1482C22.564 18.0778 23.7117 19.1111 23.7821 20.4548C23.8525 21.7984 22.8192 22.9461 21.4755 23.0165Z" fill="white"/>
</g>
<defs>
<clipPath id="clip0_1311_476">
<rect width="26" height="26" fill="white" transform="translate(0 1.36075) rotate(-3)"/>
</clipPath>
</defs>
</svg>
