<svg width="22" height="22" viewBox="0 0 22 22" fill="none" xmlns="http://www.w3.org/2000/svg">
<g clip-path="url(#clip0_1303_15)">
<path d="M9.9863 0.523363C4.47101 0.812407 0.234316 5.51773 0.52336 11.033C0.812404 16.5483 5.51773 20.785 11.033 20.496C16.5483 20.2069 20.785 15.5016 20.496 9.9863C20.2069 4.47101 15.5016 0.234319 9.9863 0.523363ZM1.83599 11.5901L3.97762 11.4779C4.07958 12.5116 4.28587 13.4515 4.5737 14.2902L2.67064 14.3899C2.24346 13.5301 1.95963 12.5868 1.83599 11.5901ZM13.5576 9.72408C13.4581 8.72331 13.2893 7.77926 13.0821 6.90543L15.1279 6.79822C15.4442 7.62133 15.6806 8.55578 15.7922 9.60698L13.5576 9.72408ZM9.11682 14.0521C8.88968 13.0887 8.75347 12.1438 8.68956 11.2309L12.3952 11.0367C12.4271 11.9512 12.3904 12.9052 12.2652 13.8871L9.11682 14.0521ZM12.0586 15.1496C11.8248 16.2885 11.4612 17.4559 10.9353 18.6344C10.2892 17.5173 9.80565 16.3943 9.45415 15.2861L12.0586 15.1496ZM8.64114 9.98175C8.6377 8.97017 8.71546 8.01271 8.83895 7.12781L11.8177 6.9717C12.0331 7.83884 12.2104 8.78293 12.3128 9.78932L8.64114 9.98175ZM9.05404 5.86486C9.36431 4.32165 9.7833 3.09494 10.0813 2.33757C10.4569 3.05964 11.0018 4.23583 11.4718 5.73815L9.05404 5.86486ZM12.7521 5.67105C12.2674 4.04166 11.6866 2.7428 11.2622 1.90591C11.7515 2.21685 13.3837 3.37538 14.571 5.57573L12.7521 5.67105ZM8.86177 2.03163C8.52711 2.90831 8.08533 4.26079 7.77363 5.93197L5.95458 6.0273C6.9055 3.71469 8.4078 2.39188 8.86177 2.03163ZM7.57456 7.19411C7.45979 8.08481 7.3907 9.04133 7.39632 10.047L5.16151 10.1641C5.16264 9.10709 5.30003 8.153 5.52851 7.30134L7.57456 7.19411ZM3.91355 10.2295L1.77057 10.3418C1.78934 9.33762 1.97299 8.36999 2.30795 7.47008L4.21969 7.36989C4.0193 8.23406 3.90925 9.18986 3.91355 10.2295ZM5.22627 11.4124L7.44462 11.2962C7.50677 12.2107 7.63346 13.1548 7.84762 14.1186L5.89181 14.2211C5.57317 13.396 5.33613 12.4613 5.22627 11.4124ZM8.17154 15.3534C8.54435 16.6083 9.06723 17.8836 9.79077 19.1535C9.33205 18.8602 7.65858 17.6802 6.44864 15.4437L8.17154 15.3534ZM12.1268 19.0339C12.7144 17.6943 13.1014 16.3705 13.3413 15.0824L15.0766 14.9915C14.111 17.3537 12.5626 18.6921 12.1268 19.0339ZM13.5344 13.8206C13.6467 12.8397 13.674 11.8874 13.6402 10.9715L15.8589 10.8552C15.8604 11.9116 15.7254 12.8656 15.4987 13.7176L13.5344 13.8206ZM17.1069 10.7898L19.2487 10.6775C19.2299 11.6817 19.0463 12.6494 18.7113 13.5493L16.8081 13.649C17.0067 12.7848 17.1135 11.8285 17.1069 10.7898ZM17.0401 9.54157C16.9357 8.50713 16.7264 7.56811 16.4368 6.72962L18.3488 6.62942C18.776 7.48934 19.0597 8.43248 19.1834 9.42925L17.0401 9.54157ZM17.6124 5.41634L15.9313 5.50444C15.3029 4.18965 14.5198 3.16457 13.7939 2.41059C15.3282 3.03564 16.6518 4.08127 17.6124 5.41634ZM6.39644 2.79844C5.75339 3.62417 5.08178 4.72544 4.59428 6.09859L2.91345 6.18668C3.72917 4.7586 4.93611 3.58047 6.39644 2.79844ZM3.40698 15.6031L5.07763 15.5155C5.69687 16.817 6.46955 17.8391 7.19071 18.5942C5.67125 17.9675 4.36032 16.928 3.40698 15.6031ZM14.6558 18.2028C15.2939 17.3765 15.9554 16.2793 16.4351 14.9203L18.1058 14.8327C17.2963 16.2499 16.1013 17.4207 14.6558 18.2028Z" fill="white"/>
</g>
<defs>
<clipPath id="clip0_1303_15">
<rect width="20" height="20" fill="white" transform="translate(0 1.04672) rotate(-3)"/>
</clipPath>
</defs>
</svg>
