<svg width="20" height="20" viewBox="0 0 20 20" fill="none" xmlns="http://www.w3.org/2000/svg">
<path d="M9.08757 2.55875C9.2045 2.43386 9.34581 2.3343 9.50277 2.26624C9.65973 2.19817 9.82899 2.16306 10.0001 2.16306C10.1712 2.16306 10.3404 2.19817 10.4974 2.26624C10.6543 2.3343 10.7956 2.43386 10.9126 2.55875L18.8438 11.0212C19.5938 11.8187 19.0263 13.125 17.9313 13.125H14.3751V16.875C14.3751 17.2065 14.2434 17.5245 14.009 17.7589C13.7745 17.9933 13.4566 18.125 13.1251 18.125H6.87507C6.54355 18.125 6.22561 17.9933 5.99119 17.7589C5.75677 17.5245 5.62507 17.2065 5.62507 16.875V13.125H2.06757C0.975071 13.125 0.407571 11.8187 1.15507 11.02L9.08757 2.55875ZM17.9326 11.875L10.0001 3.41375L2.06757 11.875H5.62507C5.95659 11.875 6.27453 12.0067 6.50895 12.2411C6.74338 12.4755 6.87507 12.7935 6.87507 13.125V16.875H13.1251V13.125C13.1251 12.7935 13.2568 12.4755 13.4912 12.2411C13.7256 12.0067 14.0436 11.875 14.3751 11.875H17.9326Z" fill="white"/>
</svg>
