<svg width="26" height="26" viewBox="0 0 26 26" fill="none" xmlns="http://www.w3.org/2000/svg">
<path d="M23.8333 4.60417C23.8333 4.38868 23.7477 4.18202 23.5953 4.02965C23.4429 3.87727 23.2362 3.79167 23.0208 3.79167C22.8053 3.79167 22.5986 3.87727 22.4462 4.02965C22.2939 4.18202 22.2083 4.38868 22.2083 4.60417V20.8542C22.2083 21.0697 22.2939 21.2763 22.4462 21.4287C22.5986 21.5811 22.8053 21.6667 23.0208 21.6667C23.2362 21.6667 23.4429 21.5811 23.5953 21.4287C23.7477 21.2763 23.8333 21.0697 23.8333 20.8542V4.60417ZM13.3033 20.0742C13.2289 20.154 13.1392 20.218 13.0395 20.2624C12.9398 20.3068 12.8322 20.3307 12.7232 20.3326C12.6141 20.3346 12.5057 20.3145 12.4045 20.2736C12.3034 20.2328 12.2114 20.1719 12.1343 20.0948C12.0571 20.0176 11.9963 19.9257 11.9555 19.8246C11.9146 19.7234 11.8945 19.615 11.8964 19.5059C11.8984 19.3968 11.9222 19.2893 11.9667 19.1896C12.0111 19.0899 12.0751 19.0002 12.1549 18.9258L17.5391 13.5417H1.89575C1.68026 13.5417 1.4736 13.4561 1.32123 13.3037C1.16885 13.1513 1.08325 12.9447 1.08325 12.7292C1.08325 12.5137 1.16885 12.307 1.32123 12.1546C1.4736 12.0023 1.68026 11.9167 1.89575 11.9167H17.5391L12.1549 6.53251C12.0114 6.37848 11.9333 6.17476 11.937 5.96427C11.9407 5.75378 12.026 5.55295 12.1748 5.40408C12.3237 5.25522 12.5245 5.16995 12.735 5.16623C12.9455 5.16252 13.1492 5.24065 13.3033 5.38417L20.0741 12.155C20.2262 12.3073 20.3117 12.5139 20.3117 12.7292C20.3117 12.9445 20.2262 13.151 20.0741 13.3033L13.3033 20.0742V20.0742Z" fill="white"/>
</svg>
