<svg width="30" height="30" viewBox="0 0 30 30" fill="none" xmlns="http://www.w3.org/2000/svg">
<g clip-path="url(#clip0_1318_557)">
<path d="M11.8813 7.5C11.9638 7.5 12.0462 7.51625 12.125 7.55C12.35 7.65 12.5 7.875 12.5 8.125V21.875C12.5 22.125 12.35 22.35 12.125 22.45C12.05 22.4875 11.9625 22.5 11.875 22.5C11.725 22.5 11.575 22.4375 11.45 22.3375L7.5375 18.75H3.725C3.05 18.75 2.5 18.2 2.5 17.525V12.475C2.5 11.8 3.05 11.25 3.725 11.25H7.525L11.45 7.6625C11.5725 7.5575 11.725 7.5 11.8813 7.5ZM11.8813 5C11.1238 5 10.39 5.275 9.81375 5.775L9.78875 5.79625L9.76375 5.81875L6.555 8.75H3.725C1.67125 8.75 0 10.425 0 12.475V17.525C0 19.5813 1.67125 21.25 3.725 21.25H6.565L9.76 24.18L9.8225 24.2375L9.88875 24.29C10.4637 24.7475 11.1675 25 11.8763 25C12.345 25 12.7862 24.9038 13.1887 24.7125C14.2912 24.2 15.0013 23.0925 15.0013 21.875V8.125C15.0013 6.89125 14.2712 5.76875 13.1412 5.26625C12.7412 5.09125 12.3187 5 11.8825 5H11.8813ZM17.5 22.5C17.5 22.2525 17.5725 22.0037 17.725 21.785C22.7725 14.5725 17.83 8.35 17.78 8.2875C17.3425 7.75 17.4263 6.9625 17.9638 6.53C18.5013 6.0925 19.2925 6.1775 19.7287 6.7125C19.7912 6.79 25.8975 14.48 19.7837 23.215C19.3875 23.7813 18.605 23.9187 18.0375 23.525C17.6875 23.2825 17.5 22.8937 17.5 22.5V22.5Z" fill="white"/>
<path d="M22.6149 30C22.3199 30 22.0224 29.9125 21.7737 29.7325C21.1787 29.3075 21.0762 28.52 21.5387 27.9788C21.9512 27.495 31.5324 15.9725 21.4724 1.93625C21.0574 1.3575 21.2324 0.582504 21.8637 0.203754C22.4937 -0.176246 23.3387 -0.0137463 23.7549 0.562504C29.5799 8.6875 29.2637 16.12 27.9712 20.925C26.5712 26.125 23.8012 29.3875 23.6837 29.525C23.4162 29.8375 23.0162 30 22.6112 30H22.6149Z" fill="white"/>
</g>
<defs>
<clipPath id="clip0_1318_557">
<rect width="30" height="30" fill="white"/>
</clipPath>
</defs>
</svg>
