<svg width="20" height="20" fill="none" xmlns="http://www.w3.org/2000/svg"><path fill-rule="evenodd" clip-rule="evenodd" d="M7.743 1.243A1.047 1.047 0 0 1 8.924.999c.132.057.25.14.348.244l6.642 7.052c.628.664.153 1.753-.764 1.753h-2.978v1.041c0 .277-.11.542-.307.737a1.05 1.05 0 0 1-.74.305H5.89a1.05 1.05 0 0 1-.74-.305 1.039 1.039 0 0 1-.306-.737v-1.041h-2.98c-.915 0-1.39-1.089-.764-1.754l6.643-7.051Zm7.408 7.763-6.643-7.05-6.644 7.05h2.98c.277 0 .543.11.74.305.196.196.306.46.306.737v1.041h5.235v-1.041c0-.276.11-.541.306-.737a1.05 1.05 0 0 1 .74-.305h2.98ZM4.844 14.214c0-.276.11-.54.306-.736a1.05 1.05 0 0 1 .74-.305h5.235c.277 0 .544.11.74.305.196.195.307.46.307.736v1.042c0 .276-.11.541-.307.737a1.05 1.05 0 0 1-.74.305H5.89a1.05 1.05 0 0 1-.74-.305 1.04 1.04 0 0 1-.306-.737v-1.042Zm6.28 0H5.89v1.042h5.235v-1.042Z" fill="#fff"/></svg>