<svg width="22" height="22" fill="none" xmlns="http://www.w3.org/2000/svg"><g clip-path="url(#a)"><path d="M9.986.523C4.471.813.234 5.518.523 11.033c.29 5.515 4.995 9.752 10.51 9.463 5.515-.29 9.752-4.994 9.463-10.51-.29-5.515-4.994-9.752-10.51-9.463ZM1.836 11.59l2.142-.112c.102 1.034.308 1.973.596 2.812l-1.903.1a8.683 8.683 0 0 1-.835-2.8Zm11.722-1.866a21.4 21.4 0 0 0-.476-2.819l2.046-.107c.316.823.553 1.758.664 2.809l-2.234.117Zm-4.441 4.328a17.665 17.665 0 0 1-.427-2.821l3.705-.194a17.66 17.66 0 0 1-.13 2.85l-3.148.165Zm2.942 1.098a16.846 16.846 0 0 1-1.124 3.484 16.848 16.848 0 0 1-1.48-3.348l2.604-.136ZM8.64 9.982a20.156 20.156 0 0 1 .198-2.854l2.979-.156c.215.867.392 1.81.495 2.817l-3.672.193Zm.413-4.117c.31-1.543.73-2.77 1.027-3.527.376.722.92 1.898 1.39 3.4l-2.417.127Zm3.698-.194a22.792 22.792 0 0 0-1.49-3.765c.49.31 2.122 1.47 3.309 3.67l-1.819.095Zm-3.89-3.64c-.335.877-.777 2.23-1.088 3.901l-1.82.095c.952-2.312 2.454-3.635 2.908-3.995ZM7.575 7.195c-.115.89-.184 1.847-.179 2.853l-2.234.117a11.06 11.06 0 0 1 .367-2.863l2.046-.107ZM3.914 10.23l-2.143.113a8.683 8.683 0 0 1 .537-2.872l1.912-.1c-.2.864-.31 1.82-.306 2.86Zm1.312 1.183 2.219-.116a18.9 18.9 0 0 0 .403 2.823l-1.956.102a10.928 10.928 0 0 1-.666-2.809Zm2.946 3.941a18 18 0 0 0 1.619 3.8c-.459-.293-2.132-1.473-3.342-3.71l1.723-.09Zm3.955 3.68c.587-1.339.974-2.663 1.214-3.95l1.736-.091c-.966 2.362-2.514 3.7-2.95 4.042Zm1.407-5.212c.113-.981.14-1.934.106-2.85l2.219-.116a11.037 11.037 0 0 1-.36 2.863l-1.965.103Zm3.573-3.031 2.142-.112a8.683 8.683 0 0 1-.538 2.871l-1.903.1c.199-.864.305-1.82.299-2.86Zm-.067-1.248a12.43 12.43 0 0 0-.603-2.812l1.912-.1c.427.86.71 1.802.834 2.8l-2.143.112Zm.572-4.126-1.68.088a11.812 11.812 0 0 0-2.138-3.093 8.795 8.795 0 0 1 3.818 3.005ZM6.396 2.798a11.814 11.814 0 0 0-1.802 3.3l-1.68.089a8.796 8.796 0 0 1 3.482-3.389ZM3.407 15.603l1.67-.088a11.82 11.82 0 0 0 2.114 3.08 8.796 8.796 0 0 1-3.784-2.992Zm11.249 2.6c.638-.826 1.3-1.924 1.78-3.283l1.67-.087a8.795 8.795 0 0 1-3.45 3.37Z" fill="#fff"/></g><defs><clipPath id="a"><path fill="#fff" transform="rotate(-3 19.986 .523)" d="M0 0h20v20H0z"/></clipPath></defs></svg>