<svg width="30" height="30" fill="none" xmlns="http://www.w3.org/2000/svg"><path d="M11.881 7.5a.616.616 0 0 1 .619.625v13.75c0 .25-.15.475-.375.575a.56.56 0 0 1-.25.05c-.15 0-.3-.063-.425-.163L7.538 18.75H3.724c-.675 0-1.225-.55-1.225-1.225v-5.05c0-.675.55-1.225 1.225-1.225h3.8l3.925-3.588a.663.663 0 0 1 .431-.162Zm0-2.5c-.757 0-1.491.275-2.067.775l-.025.021-.025.023L6.555 8.75h-2.83A3.732 3.732 0 0 0 0 12.475v5.05a3.728 3.728 0 0 0 3.725 3.725h2.84l3.195 2.93.063.058.066.052a3.21 3.21 0 0 0 1.987.71c.469 0 .91-.096 1.313-.288A3.133 3.133 0 0 0 15 21.875V8.125A3.121 3.121 0 0 0 11.882 5Z" fill="#fff"/><path stroke="#fff" stroke-linecap="round" d="M17.707 12 23 17.293"/><g filter="url(#a)"><path d="M18 17.296 23.296 12" stroke="#fff" stroke-linecap="round"/></g><defs><filter id="a" x="13.5" y="11.5" width="14.296" height="14.296" filterUnits="userSpaceOnUse" color-interpolation-filters="sRGB"><feFlood flood-opacity="0" result="BackgroundImageFix"/><feColorMatrix in="SourceAlpha" values="0 0 0 0 0 0 0 0 0 0 0 0 0 0 0 0 0 0 127 0" result="hardAlpha"/><feOffset dy="4"/><feGaussianBlur stdDeviation="2"/><feComposite in2="hardAlpha" operator="out"/><feColorMatrix values="0 0 0 0 0 0 0 0 0 0 0 0 0 0 0 0 0 0 0.25 0"/><feBlend in2="BackgroundImageFix" result="effect1_dropShadow_1323_574"/><feBlend in="SourceGraphic" in2="effect1_dropShadow_1323_574" result="shape"/></filter></defs></svg>