<svg width="30" height="30" fill="none" xmlns="http://www.w3.org/2000/svg"><g clip-path="url(#a)" fill="#fff"><path d="M11.881 7.5a.617.617 0 0 1 .619.625v13.75c0 .25-.15.475-.375.575a.56.56 0 0 1-.25.05c-.15 0-.3-.063-.425-.163L7.538 18.75H3.724c-.675 0-1.225-.55-1.225-1.225v-5.05c0-.675.55-1.225 1.225-1.225h3.8l3.925-3.588a.663.663 0 0 1 .431-.162Zm0-2.5c-.757 0-1.491.275-2.067.775l-.025.021-.025.023L6.555 8.75h-2.83A3.732 3.732 0 0 0 0 12.475v5.05a3.728 3.728 0 0 0 3.725 3.725h2.84l3.195 2.93.063.058.066.052a3.21 3.21 0 0 0 1.987.71c.469 0 .91-.096 1.313-.288A3.133 3.133 0 0 0 15 21.875V8.125A3.121 3.121 0 0 0 11.882 5ZM17.5 22.5c0-.247.073-.496.225-.715 5.047-7.213.105-13.435.055-13.498a1.245 1.245 0 0 1 .184-1.757 1.257 1.257 0 0 1 1.765.183c.062.077 6.169 7.767.055 16.502a1.258 1.258 0 0 1-1.746.31A1.245 1.245 0 0 1 17.5 22.5Z"/><path d="M22.615 30c-.295 0-.593-.087-.841-.267-.595-.425-.698-1.213-.235-1.754.412-.484 9.993-12.006-.067-26.043-.415-.579-.24-1.353.392-1.732.63-.38 1.475-.218 1.89.359 5.826 8.124 5.51 15.557 4.217 20.362-1.4 5.2-4.17 8.462-4.287 8.6A1.407 1.407 0 0 1 22.61 30h.004Z"/></g><defs><clipPath id="a"><path fill="#fff" d="M0 0h30v30H0z"/></clipPath></defs></svg>