<svg width="28" height="28" fill="none" xmlns="http://www.w3.org/2000/svg"><g clip-path="url(#a)"><path d="M21.135 16.525l-2.434.128-.34-6.491 2.434-.128a4.062 4.062 0 10-.425-8.114 4.062 4.062 0 00-3.844 4.27l.127 2.434-6.49.34-.129-2.434a4.062 4.062 0 10-8.113.425A4.062 4.062 0 006.19 10.8l2.433-.128.34 6.491-2.434.128a4.062 4.062 0 104.27 3.844l-.128-2.434 6.491-.34.128 2.434a4.062 4.062 0 108.114-.425 4.062 4.062 0 00-4.27-3.845zm-2.987-10.42a2.438 2.438 0 112.562 2.307l-2.434.127-.128-2.434zM9.178 21.22a2.438 2.438 0 01-4.87.255 2.438 2.438 0 012.307-2.561l2.435-.128.127 2.434zm-.64-12.17l-2.434.127a2.438 2.438 0 01-.255-4.868 2.438 2.438 0 012.562 2.306l.127 2.434zm8.54 7.688l-6.492.34-.34-6.49 6.491-.341.34 6.491zm4.396 6.279a2.438 2.438 0 01-2.561-2.307l-.128-2.434 2.434-.128a2.438 2.438 0 01.256 4.869z" fill="#fff"/></g><defs><clipPath id="a"><path fill="#fff" transform="rotate(-3 25.982 .68)" d="M0 0h26v26H0z"/></clipPath></defs></svg>